<svg id="SMIL" xmlns="http://www.w3.org/2000/svg" viewBox="0 0 600 382"><style>.st0{fill:none;stroke:#444444;} .st1{fill:#35394E;}</style>
    
    <path id="motionPath" class="st0" d="M0 262.7s25-52 105-38 53 18 178 24 184-170 33-160c-187.6 12.4 18 191 130 138s108.6-80 182.6-109 84.4 12 84.4 12"/>
    <path id="plane" transform="translate(-71.8, -150.2)" class="st1" d="M71.8 150.2c0-.7-.9-1.4-2.3-1.7.1-.6.2-1.5.2-2.5 0-1.7-.2-3.1-.6-3.1-.4 0-.6 1.4-.6 3.1 0 1 .1 1.8.2 2.4h-.8v.8h-.5v-2.5c0-1.1-.9-1.9-1.9-1.9h-3.2v3.3h-.6v-3h-5.1l.6-3.9h1.7c3.7 0 2-.9 1.1-1.2-1-.3-1.7-.3-4.2-.4-2.6-.1-7.8 1-8.3 1.3-.6.3.2.3.2.3h2.6l-.6 4h-1.2c-.5-.6-1.4-1.7-2.6-2.1l-.2-.1-.6 2.3c-2.5 2.7-8 0-8 0l-10 .5c-3.5-9.6-7.7-8.9-7.7-8.9v6.3h-.7v-6.4c-2.2.3-4.8 3.3-4.9 8-.2 4.8 4.9 5.4 4.9 5.4v-5.4h.5v5.6c.3.1.6.3 1 .4l-.3.7c-.1 0-.3-.1-.4-.1-.7 0-1.3.6-1.3 1.3s.6 1.3 1.3 1.3c.7 0 1.3-.6 1.3-1.3 0-.1 0-.3-.1-.4l2.3-.7c3.8 1 9 2.1 11.4 2.5 3.6.6 10.6.9 10.6.9h7.7l1.9 3.1c-1.1.8-1.7 2.2-1.6 3.3h.6c-.1-.9.4-2 1.3-2.7l.3.5c-.8.6-1.4 1.6-1.4 2.8 0 1.9 1.6 3.5 3.5 3.5s3.5-1.6 3.5-3.5c0-1.7-1.3-3.2-2.9-3.4v-.5c1.4.3 2.3 1.1 2.3 1.1l.5-.4c-.1-.1-1.1-1.1-2.7-1.4v-2.3h3.7v-3.5h.6v3.9h3.2c1.1 0 1.9-.9 1.9-1.9V151h.5v1.1h.8c-.1.6-.2 1.4-.2 2.4 0 1.7.2 3.1.6 3.1.4 0 .6-1.4.6-3.1 0-1-.1-1.9-.2-2.5 1.3-.5 2.3-1.1 2.3-1.8z"/>
  
</svg>